<svg width="18" height="10" viewBox="0 0 18 10" fill="none" xmlns="http://www.w3.org/2000/svg">
<path d="M2.25008 5.00016C2.25008 3.57516 3.40841 2.41683 4.83341 2.41683H8.16675V0.833496H4.83341C2.53341 0.833496 0.666748 2.70016 0.666748 5.00016C0.666748 7.30016 2.53341 9.16683 4.83341 9.16683H8.16675V7.5835H4.83341C3.40841 7.5835 2.25008 6.42516 2.25008 5.00016ZM5.66675 5.8335H12.3334V4.16683H5.66675V5.8335ZM13.1667 0.833496H9.83341V2.41683H13.1667C14.5917 2.41683 15.7501 3.57516 15.7501 5.00016C15.7501 6.42516 14.5917 7.5835 13.1667 7.5835H9.83341V9.16683H13.1667C15.4667 9.16683 17.3334 7.30016 17.3334 5.00016C17.3334 2.70016 15.4667 0.833496 13.1667 0.833496Z" fill="#334D6E"/>
</svg>
