<svg width="9" height="16" viewBox="0 0 9 16" fill="none" xmlns="http://www.w3.org/2000/svg">
<path d="M7.32556 3.63634V11.9999C7.32556 13.6072 6.02375 14.909 4.41648 14.909C2.80922 14.909 1.50741 13.6072 1.50741 11.9999V2.90908C1.50741 1.90544 2.32195 1.0909 3.32558 1.0909C4.32921 1.0909 5.14375 1.90544 5.14375 2.90908V10.5454C5.14375 10.9454 4.81648 11.2727 4.41648 11.2727C4.01649 11.2727 3.68921 10.9454 3.68921 10.5454V3.63634H2.59831V10.5454C2.59831 11.549 3.41285 12.3636 4.41648 12.3636C5.42011 12.3636 6.23466 11.549 6.23466 10.5454V2.90908C6.23466 1.30181 4.93284 0 3.32558 0C1.71832 0 0.416504 1.30181 0.416504 2.90908V11.9999C0.416504 14.2108 2.20559 15.9999 4.41648 15.9999C6.62738 15.9999 8.41646 14.2108 8.41646 11.9999V3.63634H7.32556Z" fill="#334D6E"/>
</svg>
